{"title":"The.Road.2009.1080p.BluRay.DTS.x264-LTT","uid":5554540,"size":6445698875,"categoryP":"video","categoryS":"hd___movies","magnet":"?xt=urn:btih:24f27e517e3bac8826bd6769dacc8e8b5ab40654&amp;dn=The.Road.2009.1080p.BluRay.DTS.x264-LTT&amp;tr=udp%3A%2F%2Ftracker.openbittorrent.com%3A80&amp;tr=udp%3A%2F%2Fopen.demonii.com%3A1337&amp;tr=udp%3A%2F%2Ftracker.coppersurfer.tk%3A6969&amp;tr=udp%3A%2F%2Fexodus.desync.com%3A6969","seeders":1,"leechers":0,"uploader":"Ltt_01","files":2,"time":1273649504,"description":"The.Road.2009.1080p.BluRay.DTS.mkv\n**********************************\n\nTiTLE......  The Road\nYEAR.......  2009\nGENRE......  Adventure | Drama | Thriller \niMDB RATE..  User Rating: 7.6/10 (23,659 votes)\niMDB URL... &lt;a href=&quot; http://www.imdb.com/title/tt0898367/&quot; rel=&quot;nofollow&quot; target=&quot;_NEW&quot;&gt; http://www.imdb.com/title/tt0898367/&lt;/a&gt;\n*************************************************\nNominated for BAFTA Film Award. Another 1 win &amp; 10 nominations \n\nVideo\nDuration                         : 1h 51mn\nOverall bit rate                 : 7 719 Kbps\nWidth                            : 1 920 pixels\nHeight                           : 816 pixels\nDisplay aspect ratio             : 2.35:1\nFrame rate                       : 23.976 fps\nStream size                      : 4.70 GiB (78%)\n\nAudio\nFormat                           : DTS\nFormat/Info                      : Digital Theater Systems\nBit rate                         : 1 510 Kbps\nChannel(s)                       : 6 channels\nChannel positions                : Front: L C R, Surround: L R, LFE\nSampling rate                    : 48.0 KHz\nResolution                       : 24 bits\nStream size                      : 1.17 GiB (20%)\nLanguage                         : English\n\nSubtitles: English, Dutch, French, Brazil, Spanish\n**************************************************\n\n","torrent":{"xt":"urn:btih:24f27e517e3bac8826bd6769dacc8e8b5ab40654","amp;dn":"The.Road.2009.1080p.BluRay.DTS.x264-LTT","amp;tr":["udp%3A%2F%2Ftracker.openbittorrent.com%3A80","udp%3A%2F%2Fopen.demonii.com%3A1337","udp%3A%2F%2Ftracker.coppersurfer.tk%3A6969","udp%3A%2F%2Fexodus.desync.com%3A6969"],"infoHash":"24f27e517e3bac8826bd6769dacc8e8b5ab40654","infoHashBuffer":{"type":"Buffer","data":[36,242,126,81,126,59,172,136,38,189,103,105,218,204,142,139,90,180,6,84]},"announce":[],"urlList":[]}}